<?xml version="1.0" encoding="UTF-8" standalone="no"?>
<svg
   xmlns:dc="http://purl.org/dc/elements/1.1/"
   xmlns:cc="http://creativecommons.org/ns#"
   xmlns:rdf="http://www.w3.org/1999/02/22-rdf-syntax-ns#"
   xmlns:svg="http://www.w3.org/2000/svg"
   xmlns="http://www.w3.org/2000/svg"
   xmlns:sodipodi="http://sodipodi.sourceforge.net/DTD/sodipodi-0.dtd"
   xmlns:inkscape="http://www.inkscape.org/namespaces/inkscape"
   enable-background="new 0 0 30 30"
   height="30px"
   id="Layer_1"
   version="1.1"
   viewBox="0 0 30 30"
   width="30px"
   xml:space="preserve"
   inkscape:version="0.91 r13725"
   sodipodi:docname="excel.svg"><metadata
     id="metadata15"><rdf:RDF><cc:Work
         rdf:about=""><dc:format>image/svg+xml</dc:format><dc:type
           rdf:resource="http://purl.org/dc/dcmitype/StillImage" /></cc:Work></rdf:RDF></metadata><defs
     id="defs13" /><sodipodi:namedview
     pagecolor="#ffffff"
     bordercolor="#666666"
     borderopacity="1"
     objecttolerance="10"
     gridtolerance="10"
     guidetolerance="10"
     inkscape:pageopacity="0"
     inkscape:pageshadow="2"
     inkscape:window-width="1920"
     inkscape:window-height="1027"
     id="namedview11"
     showgrid="false"
     inkscape:zoom="7.8666667"
     inkscape:cx="15"
     inkscape:cy="15"
     inkscape:window-x="1912"
     inkscape:window-y="-8"
     inkscape:window-maximized="1"
     inkscape:current-layer="Layer_1" /><g
     id="g4146"><path
       d="m 28.705,7.506 -5.461,-6.333 -1.08,-1.254 -12.902,0 c -1.732,0 -3.133,1.403 -3.133,3.136 l 0,3.985 1.942,0 L 8.07,3.818 C 8.072,2.843 8.856,2.054 9.828,2.054 l 11.034,-0.01 0,5.228 c 0.002,1.947 1.575,3.523 3.524,3.523 l 3.819,0 -0.188,15.081 c -0.003,0.97 -0.79,1.753 -1.759,1.761 L 9.688,27.629 c -0.887,0 -1.601,-0.87 -1.605,-1.942 l 0,-1.277 -1.945,0 0,1.904 c 0,1.912 1.282,3.468 2.856,3.468 l 17.831,-0.004 c 1.732,0 3.137,-1.41 3.137,-3.139 l 0,-17.673 -1.257,-1.46"
       id="path5"
       inkscape:connector-curvature="0"
       style="clip-rule:evenodd;fill:#869cad;fill-rule:evenodd;fill-opacity:1" /><path
       d="M 20.223,25.382 0,25.382 0,6.068 l 20.223,0 0,19.314 m -18.28,-1.944 16.333,0 0,-15.426 -16.333,0"
       id="path7"
       inkscape:connector-curvature="0"
       style="fill:#08743b" /><polyline
       points="15.73,20.822 12.325,20.822 10.001,17.538 7.561,20.822 4.14,20.822 8.384,15.486 4.957,10.817    8.412,10.817 10.016,13.355 11.726,10.817 15.242,10.817 11.649,15.486 15.73,20.822  "
       id="polyline9"
       style="fill:#08743b" /></g></svg>