<?xml version="1.0" encoding="UTF-8" standalone="no"?>
<svg
   xmlns:dc="http://purl.org/dc/elements/1.1/"
   xmlns:cc="http://creativecommons.org/ns#"
   xmlns:rdf="http://www.w3.org/1999/02/22-rdf-syntax-ns#"
   xmlns:svg="http://www.w3.org/2000/svg"
   xmlns="http://www.w3.org/2000/svg"
   xmlns:sodipodi="http://sodipodi.sourceforge.net/DTD/sodipodi-0.dtd"
   xmlns:inkscape="http://www.inkscape.org/namespaces/inkscape"
   enable-background="new 0 0 30 30"
   height="30px"
   id="Layer_1"
   version="1.1"
   viewBox="0 0 30 30"
   width="30px"
   xml:space="preserve"
   inkscape:version="0.91 r13725"
   sodipodi:docname="ppt.svg"><metadata
     id="metadata15"><rdf:RDF><cc:Work
         rdf:about=""><dc:format>image/svg+xml</dc:format><dc:type
           rdf:resource="http://purl.org/dc/dcmitype/StillImage" /></cc:Work></rdf:RDF></metadata><defs
     id="defs13" /><sodipodi:namedview
     pagecolor="#ffffff"
     bordercolor="#666666"
     borderopacity="1"
     objecttolerance="10"
     gridtolerance="10"
     guidetolerance="10"
     inkscape:pageopacity="0"
     inkscape:pageshadow="2"
     inkscape:window-width="1379"
     inkscape:window-height="1009"
     id="namedview11"
     showgrid="false"
     inkscape:zoom="7.8666667"
     inkscape:cx="-0.82627119"
     inkscape:cy="15"
     inkscape:window-x="1922"
     inkscape:window-y="0"
     inkscape:window-maximized="0"
     inkscape:current-layer="Layer_1" /><g
     id="g4146"><path
       d="M 28.515,7.541 23.09,1.25 22.017,0.003 9.2,0.003 c -1.72,0 -3.112,1.393 -3.112,3.115 l 0,3.959 1.93,0 L 8.017,3.876 C 8.019,2.908 8.797,2.125 9.763,2.125 l 10.962,-0.01 0,5.193 c 10e-4,1.934 1.564,3.5 3.499,3.5 l 3.795,0 -0.187,14.98 c -0.003,0.965 -0.784,1.742 -1.747,1.749 L 9.625,27.529 c -0.881,0 -1.59,-0.864 -1.594,-1.929 l 0,-1.269 -1.934,0 0,1.891 c 0,1.901 1.273,3.445 2.837,3.445 l 17.712,-0.005 c 1.721,0 3.116,-1.4 3.116,-3.117 l 0,-17.555 -1.247,-1.449"
       id="path5"
       inkscape:connector-curvature="0"
       style="fill:#869cad;fill-opacity:1" /><path
       d="M 20.088,25.297 0,25.297 0,6.111 l 20.088,0 0,19.186 M 1.93,23.365 l 16.225,0 0,-15.322 -16.225,0"
       id="path7"
       inkscape:connector-curvature="0"
       style="fill:#dd5b26" /><path
       d="m 11.587,14.763 c 0,-0.359 -0.109,-0.646 -0.33,-0.86 -0.222,-0.215 -0.598,-0.322 -1.129,-0.322 l -0.885,0 0,2.396 0.879,0 c 0.572,0 0.962,-0.119 1.175,-0.354 0.194,-0.211 0.29,-0.499 0.29,-0.86 m 2.345,-0.026 c 0,0.792 -0.198,1.445 -0.596,1.964 -0.517,0.669 -1.373,1.005 -2.571,1.005 l -1.522,0 0,3.061 -2.344,0 0,-8.915 3.824,0 c 1.088,0 1.914,0.301 2.478,0.904 0.487,0.517 0.731,1.178 0.731,1.981 z"
       id="path9"
       inkscape:connector-curvature="0"
       style="fill:#dd5b26" /></g></svg>