<?xml version="1.0" encoding="UTF-8" standalone="no"?>
<svg
   xmlns:dc="http://purl.org/dc/elements/1.1/"
   xmlns:cc="http://creativecommons.org/ns#"
   xmlns:rdf="http://www.w3.org/1999/02/22-rdf-syntax-ns#"
   xmlns:svg="http://www.w3.org/2000/svg"
   xmlns="http://www.w3.org/2000/svg"
   xmlns:sodipodi="http://sodipodi.sourceforge.net/DTD/sodipodi-0.dtd"
   xmlns:inkscape="http://www.inkscape.org/namespaces/inkscape"
   enable-background="new 0 0 30 30"
   height="30px"
   id="Layer_1"
   version="1.1"
   viewBox="0 0 30 30"
   width="30px"
   xml:space="preserve"
   inkscape:version="0.91 r13725"
   sodipodi:docname="word_active.svg"><metadata
     id="metadata15"><rdf:RDF><cc:Work
         rdf:about=""><dc:format>image/svg+xml</dc:format><dc:type
           rdf:resource="http://purl.org/dc/dcmitype/StillImage" /><dc:title></dc:title></cc:Work></rdf:RDF></metadata><defs
     id="defs13" /><sodipodi:namedview
     pagecolor="#ffffff"
     bordercolor="#666666"
     borderopacity="1"
     objecttolerance="10"
     gridtolerance="10"
     guidetolerance="10"
     inkscape:pageopacity="0"
     inkscape:pageshadow="2"
     inkscape:window-width="1920"
     inkscape:window-height="1027"
     id="namedview11"
     showgrid="false"
     inkscape:zoom="7.8666667"
     inkscape:cx="15"
     inkscape:cy="15"
     inkscape:window-x="1912"
     inkscape:window-y="-8"
     inkscape:window-maximized="1"
     inkscape:current-layer="Layer_1" /><g
     id="g4154"><path
       d="M 28.692,7.584 23.233,1.254 22.154,0 9.257,0 C 7.526,0 6.125,1.402 6.125,3.134 l 0,3.984 1.942,0 L 8.066,3.897 C 8.068,2.923 8.851,2.135 9.823,2.135 l 11.03,-0.01 0,5.225 c 10e-4,1.946 1.574,3.522 3.521,3.522 l 3.818,0 -0.188,15.074 c -0.002,0.97 -0.788,1.752 -1.758,1.759 L 9.685,27.698 c -0.886,0 -1.6,-0.871 -1.604,-1.942 l 0,-1.274 -1.946,0 0,1.901 c 0,1.914 1.281,3.467 2.854,3.467 l 17.824,-0.006 c 1.73,0 3.135,-1.409 3.135,-3.135 l 0,-17.666 -1.256,-1.459"
       id="path5"
       inkscape:connector-curvature="0"
       style="fill:#65b6f0;fill-opacity:1" /><path
       d="M 20.213,25.451 0,25.451 0,6.147 l 20.213,0 0,19.304 m -18.271,-1.942 16.326,0 0,-15.419 -16.326,0"
       id="path7"
       inkscape:connector-curvature="0"
       style="fill:#2372ba" /><polyline
       points="17.052,11.922 14.098,20.895 11.646,20.895 9.958,15.694 8.188,20.895 5.744,20.895 2.985,11.922    5.498,11.922 7.105,17.721 9.063,11.922 10.974,11.922 12.796,17.721 14.543,11.922 17.052,11.922  "
       id="polyline9"
       style="fill:#2372ba" /></g></svg>